<svg width="20" height="28" viewBox="0 0 20 28" fill="none" xmlns="http://www.w3.org/2000/svg">
<path d="M14.0117 23.0908C14.0117 23.8434 13.9619 24.4854 13.8623 25.0166C13.7738 25.5479 13.6465 25.9795 13.4805 26.3115C13.3145 26.6436 13.1097 26.887 12.8662 27.042C12.6338 27.1969 12.3792 27.2744 12.1025 27.2744C11.8923 27.2744 11.6598 27.2025 11.4053 27.0586C11.1507 26.9147 10.9072 26.7376 10.6748 26.5273C10.4535 26.3171 10.2653 26.1012 10.1104 25.8799C9.96647 25.6585 9.89453 25.4648 9.89453 25.2988C9.89453 25.1882 9.9056 25.1162 9.92773 25.083C9.96094 25.0609 9.99967 25.0498 10.0439 25.0498C10.0993 25.0609 10.1602 25.0775 10.2266 25.0996C10.304 25.1217 10.387 25.1328 10.4756 25.1328C10.7855 25.1328 11.0068 24.9391 11.1396 24.5518C11.2835 24.1533 11.3555 23.5225 11.3555 22.6592V3.88281C10.304 3.97135 9.29134 4.15951 8.31738 4.44727C7.34342 4.72396 6.48568 5.14453 5.74414 5.70898C5.0026 6.27344 4.41048 7.00944 3.96777 7.91699C3.52507 8.81348 3.30371 9.92025 3.30371 11.2373C3.30371 11.8239 3.35905 12.3551 3.46973 12.8311C3.59147 13.2959 3.74642 13.7165 3.93457 14.0928C4.12272 14.4691 4.32747 14.8011 4.54883 15.0889C4.78125 15.3766 5.00814 15.6312 5.22949 15.8525C5.41764 15.7972 5.55046 15.8193 5.62793 15.9189C5.7054 16.0186 5.74414 16.1569 5.74414 16.334C5.74414 16.5553 5.69434 16.7878 5.59473 17.0312C5.50618 17.2637 5.38444 17.4795 5.22949 17.6787C5.07454 17.8669 4.89746 18.0273 4.69824 18.1602C4.51009 18.2819 4.31641 18.3428 4.11719 18.3428C4.02865 18.3428 3.9401 18.3317 3.85156 18.3096C3.77409 18.2874 3.69108 18.2376 3.60254 18.1602C3.35905 17.9831 3.06576 17.6953 2.72266 17.2969C2.37956 16.8874 2.05306 16.3838 1.74316 15.7861C1.43327 15.1885 1.16764 14.5078 0.946289 13.7441C0.724935 12.9694 0.614258 12.1338 0.614258 11.2373C0.614258 9.59928 0.91862 8.15495 1.52734 6.9043C2.13607 5.65365 2.98275 4.60775 4.06738 3.7666C5.15202 2.91439 6.43587 2.27246 7.91895 1.84082C9.41309 1.40918 11.0456 1.19336 12.8164 1.19336C13.2259 1.19336 13.7184 1.19889 14.2939 1.20996C14.8805 1.20996 15.4616 1.21549 16.0371 1.22656C16.6126 1.23763 17.1273 1.2487 17.5811 1.25977C18.0459 1.25977 18.3613 1.25977 18.5273 1.25977C18.6712 1.25977 18.7874 1.2487 18.876 1.22656C18.9756 1.19336 19.0531 1.16016 19.1084 1.12695C19.1748 1.09375 19.2246 1.06608 19.2578 1.04395C19.291 1.01074 19.3187 0.994141 19.3408 0.994141C19.3962 0.994141 19.446 1.03288 19.4902 1.11035C19.5456 1.17676 19.5898 1.2653 19.623 1.37598C19.6673 1.47559 19.7005 1.5918 19.7227 1.72461C19.7448 1.85742 19.7559 1.99023 19.7559 2.12305C19.7559 2.32227 19.7282 2.53255 19.6729 2.75391C19.6175 2.96419 19.5345 3.15788 19.4238 3.33496C19.3132 3.50098 19.1748 3.63932 19.0088 3.75C18.8428 3.86068 18.6491 3.91602 18.4277 3.91602C18.306 3.91602 18.0791 3.91602 17.7471 3.91602C17.4261 3.90495 17.0553 3.89388 16.6348 3.88281C16.2142 3.87174 15.7715 3.86068 15.3066 3.84961C14.8418 3.83854 14.4102 3.82747 14.0117 3.81641V23.0908Z" fill="white"/>
</svg>
