<svg width="32" height="32" viewBox="0 0 32 32" fill="none" xmlns="http://www.w3.org/2000/svg">
<g clip-path="url(#clip0_1623_2)">
<circle cx="16" cy="16" r="16" fill="#CCFF00"/>
<path d="M16.776 26.936C14.6853 26.936 12.808 26.52 11.144 25.688C9.50133 24.8347 8.2 23.576 7.24 21.912C6.28 20.2267 5.8 18.168 5.8 15.736C5.8 13.7733 6.248 11.9387 7.144 10.232C8.04 8.52533 9.27733 7.16 10.856 6.136C12.4347 5.112 14.2053 4.6 16.168 4.6C18.024 4.6 19.6773 4.952 21.128 5.656C22.5787 6.33867 23.6987 7.27733 24.488 8.472C25.2987 9.66667 25.704 11 25.704 12.472C25.704 13.4107 25.4267 14.2213 24.872 14.904C24.3387 15.5867 23.5707 15.928 22.568 15.928C21.8213 15.928 21.2453 15.8 20.84 15.544C20.4347 15.288 20.008 14.8933 19.56 14.36C19.112 13.8267 18.6747 13.432 18.248 13.176C17.8427 12.8987 17.2453 12.76 16.456 12.76C15.4533 12.76 14.5893 13.144 13.864 13.912C13.16 14.6587 12.808 15.576 12.808 16.664C12.808 17.8373 13.1067 18.8293 13.704 19.64C14.3227 20.4293 15.1547 20.824 16.2 20.824C17.0107 20.824 17.6507 20.7067 18.12 20.472C18.6107 20.2373 19.1227 19.896 19.656 19.448C20.104 19.064 20.5093 18.776 20.872 18.584C21.256 18.392 21.7253 18.296 22.28 18.296C23.1333 18.296 23.8053 18.5627 24.296 19.096C24.7867 19.608 25.032 20.28 25.032 21.112C25.032 22.0933 24.6693 23.032 23.944 23.928C23.24 24.824 22.2587 25.5493 21 26.104C19.7413 26.6587 18.3333 26.936 16.776 26.936Z" fill="#4B49B4"/>
</g>
<defs>
<clipPath id="clip0_1623_2">
<rect width="32" height="32" fill="white"/>
</clipPath>
</defs>
</svg>
