<svg width="32" height="32" viewBox="0 0 32 32" fill="none" xmlns="http://www.w3.org/2000/svg">
<g clip-path="url(#clip0_1625_20)">
<path fill-rule="evenodd" clip-rule="evenodd" d="M16 32C24.8369 32 32 24.8367 32 16C32 7.16333 24.8369 0 16 0C7.16309 0 0 7.16333 0 16C0 24.8367 7.16309 32 16 32ZM11.1436 25.688C12.8076 26.52 14.6855 26.936 16.7754 26.936C18.333 26.936 19.7412 26.6587 21 26.104C22.2588 25.5493 23.2402 24.8242 23.9434 23.928C24.6689 23.032 25.0322 22.0935 25.0322 21.1121C25.0322 20.28 24.7861 19.6082 24.2959 19.0962C23.8047 18.5627 23.1328 18.2961 22.2803 18.2961C21.7256 18.2961 21.2559 18.3921 20.8721 18.584C20.71 18.6694 20.54 18.7739 20.3623 18.8975C20.1396 19.0515 19.9043 19.2351 19.6562 19.448C19.1221 19.896 18.6104 20.2375 18.1201 20.4722C17.6504 20.7068 17.0107 20.8242 16.2002 20.8242C15.1543 20.8242 14.3223 20.4294 13.7041 19.6401C13.1064 18.8293 12.8076 17.8374 12.8076 16.6641C12.8076 15.5762 13.1602 14.6587 13.8643 13.9121C14.5889 13.144 15.4531 12.76 16.4561 12.76C17.2451 12.76 17.8428 12.8987 18.248 13.176C18.6748 13.4321 19.1113 13.8267 19.5596 14.3601C20.0078 14.8933 20.4346 15.2881 20.8398 15.5442C21.2451 15.8 21.8213 15.928 22.5674 15.928C23.5703 15.928 24.3389 15.5867 24.8721 14.9041C25.4268 14.2214 25.7041 13.4106 25.7041 12.4722C25.7041 11 25.2988 9.66675 24.4883 8.47217C23.6982 7.27734 22.5781 6.33887 21.1279 5.65601C19.6768 4.95215 18.0234 4.6001 16.168 4.6001C14.2051 4.6001 12.4346 5.11206 10.8555 6.13599C9.27734 7.16016 8.04004 8.52539 7.14355 10.2322C6.24805 11.9387 5.7998 13.7734 5.7998 15.7361C5.7998 18.1682 6.28027 20.2268 7.24023 21.9121C8.2002 23.5762 9.50098 24.8347 11.1436 25.688Z" fill="black"/>
</g>
<defs>
<clipPath id="clip0_1625_20">
<rect width="32" height="32" fill="white"/>
</clipPath>
</defs>
</svg>
